<svg id="Layer_1" data-name="Layer 1" xmlns="http://www.w3.org/2000/svg" viewBox="0 0 708.07 237.4"><defs><style>.cls-1{fill:#231f20;}.cls-1,.cls-3,.cls-4{fill-rule:evenodd;}.cls-2,.cls-3{fill:#58595b;}.cls-4{fill:#d2232a;}</style></defs><title>NMIMS_logo</title><path class="cls-1" d="M316.62,71.42h.55c3.51,0,5.92.9,7.19,2.66s2,5.14,2,9.89V129L277.27,68.23l-.16-.2H255.87v3.34l.49,0c4.05.4,7,1.67,8.7,3.72s2.63,5.62,2.63,10.5v46.6c0,4.92-.65,8.39-1.95,10.33s-3.71,2.78-7.36,2.78h-.53v3.39h25.22v-3.39h-.53c-3.56,0-6.15-.79-7.64-2.36s-2.27-4.32-2.27-8.1V80.48l55.45,68.05.17.2h3.23V83.44c0-4.6.72-7.8,2.12-9.49s3.95-2.53,7.59-2.53h.54V68H316.62Z"/><path class="cls-1" d="M436.3,142.34c-1.27-1.65-2.14-5.07-2.58-10.15l-4-49c0-.63-.06-1.23-.06-1.81,0-6.64,2.75-9.94,8.43-10.06h.52V67.89H418.92l-25.46,61.78L368.33,67.89H347.26v3.3l.44.07a17.32,17.32,0,0,1,9.92,5.24L352.81,131c-.5,5.42-1.48,9.09-2.89,10.88s-3.69,2.86-6.81,3.3l-.47.06v3.32H368.5v-3.3l-.45-.07c-6.66-1.24-9.92-5.05-9.92-11.69,0-.62,0-1.27.05-2l4.31-46.92,26.2,64h2.82L418.08,84.5l4.07,49.27c.05.76.08,1.45.08,2.07,0,2.94-.6,5.13-1.76,6.56s-3.21,2.33-6.09,2.81l-.45.08v3.3h29.71v-3.34l-.5,0c-3.3-.31-5.6-1.27-6.84-2.87"/><path class="cls-1" d="M450.1,71.42h.54c3.32,0,5.57.83,6.71,2.46s1.78,5,1.78,9.7v49.66c0,4.68-.61,7.92-1.81,9.61s-3.4,2.49-6.68,2.49h-.54v3.39h29.73v-3.39h-.54c-3.2,0-5.43-.84-6.63-2.51s-1.87-5-1.87-9.59V83.58c0-4.61.62-7.84,1.86-9.59s3.44-2.57,6.62-2.57h.55V68H450.1Z"/><path class="cls-1" d="M579.58,142.49c-1.24-1.64-2.12-5.05-2.56-10.16l-4-49.07c0-.62,0-1.22,0-1.79,0-6.62,2.75-9.92,8.43-10h.52V68H562.2L536.75,129.8,511.62,68H490.54v3.31l.45.07a17.31,17.31,0,0,1,9.93,5.23l-4.81,54.53c-.52,5.44-1.51,9.1-2.89,10.89s-3.69,2.86-6.83,3.29l-.46.06v3.32h25.86v-3.29l-.44-.09c-6.68-1.23-9.92-5.06-9.92-11.67,0-.67,0-1.41.06-2.12l4.28-46.77L532,148.73h2.83l26.56-64.08,4.07,49.26c0,.75.07,1.45.07,2.1,0,2.93-.59,5.14-1.74,6.53s-3.23,2.34-6.12,2.81l-.44.07v3.31h29.73v-3.34l-.49,0c-3.32-.31-5.63-1.27-6.87-2.86"/><path class="cls-1" d="M640.1,114.27C637.19,110.49,631.43,106,623,101c-7.15-4.31-11.86-7.84-14-10.55a14.07,14.07,0,0,1-3.13-8.81,10.22,10.22,0,0,1,3.74-8.28c2.54-2.09,5.91-3.14,10.06-3.14a16.89,16.89,0,0,1,11.71,4.21c3.08,2.77,4.9,6.72,5.45,11.73l.06.49h3.32V66.88H637.1l-.12.39a5.65,5.65,0,0,1-.65,1.65c-.05,0-.22.2-.87.2a14.82,14.82,0,0,1-3.91-.92,37.29,37.29,0,0,0-11.73-2.13c-6.54,0-11.94,2-16.05,5.85s-6.17,9-6.17,15.27a25.21,25.21,0,0,0,1.52,8.91,22.81,22.81,0,0,0,4.71,7.5c2.13,2.22,6.32,5.31,12.55,9.16,7.52,4.57,12.51,8.37,14.87,11.26a14,14,0,0,1,3.47,8.88,12.44,12.44,0,0,1-4.2,9.93c-2.78,2.48-6.58,3.74-11.28,3.74a18.62,18.62,0,0,1-13-5.21c-3.7-3.47-5.6-8.13-5.64-13.86V127h-3.39v22.61h3.22l.14-.36c.63-1.8,1.49-2.7,2.54-2.7a16.2,16.2,0,0,1,4.23,1.19c5.65,2,10.37,3,14,3a23.22,23.22,0,0,0,23.2-23.2,21.21,21.21,0,0,0-4.45-13.23"/><path class="cls-1" d="M267.35,24.52H268v5.39h-.66a5.43,5.43,0,0,0-1.62-3.5,5.07,5.07,0,0,0-3.48-1.26,4.56,4.56,0,0,0-3,1,3.1,3.1,0,0,0-1.14,2.51,4.24,4.24,0,0,0,.94,2.66,16.8,16.8,0,0,0,4.07,3.06,18,18,0,0,1,4.9,3.8,5.93,5.93,0,0,1,1.26,3.74,6.57,6.57,0,0,1-6.55,6.55,12.71,12.71,0,0,1-4-.88,5.56,5.56,0,0,0-1.29-.34c-.36,0-.66.28-.86.87h-.68v-6.2h.68A5.33,5.33,0,0,0,258.21,46a5.45,5.45,0,0,0,3.86,1.57,4.87,4.87,0,0,0,3.37-1.13,3.74,3.74,0,0,0,1.29-3,4.16,4.16,0,0,0-1.06-2.67,19,19,0,0,0-4.33-3.29,16.73,16.73,0,0,1-3.57-2.62,5.72,5.72,0,0,1-1.35-2.11,7.27,7.27,0,0,1-.43-2.51,5.75,5.75,0,0,1,1.73-4.3,6.32,6.32,0,0,1,4.52-1.64,10.45,10.45,0,0,1,3.35.61,4.82,4.82,0,0,0,1.18.25c.18,0,.31,0,.36-.1a1.16,1.16,0,0,0,.22-.53"/><path class="cls-1" d="M367.42,24.52h.63v5.39h-.67a5.35,5.35,0,0,0-1.63-3.5,5.09,5.09,0,0,0-3.48-1.26,4.56,4.56,0,0,0-3,1,3.1,3.1,0,0,0-1.14,2.51,4.35,4.35,0,0,0,.93,2.66,17.47,17.47,0,0,0,4.09,3.06,18.58,18.58,0,0,1,4.91,3.8,6,6,0,0,1,1.23,3.74,6.3,6.3,0,0,1-1.9,4.62,6.41,6.41,0,0,1-4.64,1.93,12.82,12.82,0,0,1-4-.88,5.53,5.53,0,0,0-1.28-.34c-.37,0-.67.28-.88.87h-.65v-6.2h.65a5.57,5.57,0,0,0,5.55,5.66,4.9,4.9,0,0,0,3.37-1.13,3.75,3.75,0,0,0,1.25-3,4.23,4.23,0,0,0-1-2.67,19.09,19.09,0,0,0-4.32-3.29,18.33,18.33,0,0,1-3.62-2.62,5.84,5.84,0,0,1-1.3-2.11,7,7,0,0,1-.44-2.51,5.7,5.7,0,0,1,1.72-4.3,6.33,6.33,0,0,1,4.54-1.64,10.25,10.25,0,0,1,3.33.61,4.82,4.82,0,0,0,1.18.25.5.5,0,0,0,.38-.1,1.91,1.91,0,0,0,.22-.53"/><path class="cls-1" d="M292.59,47.85v-.66a2.26,2.26,0,0,0,2.05-.84,5,5,0,0,0,.56-2.82V29.2a5.39,5.39,0,0,0-.54-2.88,2.31,2.31,0,0,0-2.07-.8v-.66h8.25v.66a2.3,2.3,0,0,0-2,.82,5.54,5.54,0,0,0-.55,2.86v6.94l7.52-7.4c.8-.8,1.2-1.43,1.2-1.93,0-.66-.5-1.09-1.46-1.29v-.66h8.68v.66h-1.15a5.22,5.22,0,0,0-2.37.7,9.47,9.47,0,0,0-2.47,1.84l-7.15,7.07,9.51,9.62a12.47,12.47,0,0,0,2.17,1.9,5.25,5.25,0,0,0,2.14.54v.66h-5.46L298.26,36.57v7a5.31,5.31,0,0,0,.54,2.82,2.23,2.23,0,0,0,2,.84v.66Z"/><path class="cls-1" d="M338.45,24.86h5.42v.66c-1.72,0-2.59,1.07-2.59,3.05a5,5,0,0,0,0,.54l1.16,14.16a6.27,6.27,0,0,0,.76,3,3,3,0,0,0,2.1.89v.66h-8.26v-.66a3.12,3.12,0,0,0,1.85-.87,3.11,3.11,0,0,0,.53-2c0-.2,0-.41,0-.63l-1.22-14.86-7.89,19h-.6l-7.77-19L320.68,43a3.61,3.61,0,0,0,0,.63,3.26,3.26,0,0,0,3,3.54v.66h-7.13v-.66a3.06,3.06,0,0,0,2.05-1,6.41,6.41,0,0,0,.87-3.22l1.39-15.81a5.11,5.11,0,0,0-3-1.61v-.66h5.83L331,42.94Z"/><path class="cls-1" d="M348.18,31.78V31.1a4.58,4.58,0,0,0,2.5-4.24.86.86,0,0,0-.19-.56,1.59,1.59,0,0,0-.78-.37,1.88,1.88,0,0,1-1.07-.58,1.7,1.7,0,0,1-.26-1,1.74,1.74,0,0,1,.47-1.23,1.77,1.77,0,0,1,1.27-.46,2.16,2.16,0,0,1,1.77.81,3.41,3.41,0,0,1,.67,2.19,6.44,6.44,0,0,1-1.19,3.87,5.8,5.8,0,0,1-3.19,2.26"/><path class="cls-1" d="M283.06,24.8v.68c4.33-.49,4,2.25,3.69,3l-5.39,13.57L276,28.19a3.19,3.19,0,0,1-.25-1.15c0-1.05.68-1.56,2-1.56V24.8h-8.36v.68a3,3,0,0,1,2.07.72,9.78,9.78,0,0,1,1.74,3.28l4,10.25,3.2,8.08v0l0,0v0l3.2-8.08,4-10.26a9.84,9.84,0,0,1,1.73-3.27,3,3,0,0,1,2.07-.72V24.8Z"/><rect class="cls-2" x="255.87" y="167.95" width="388.69" height="1.95"/><path class="cls-3" d="M186.14,78.41C204,89.72,220.77,99.7,212.37,131.59v0h6.54a100.63,100.63,0,0,0,2.11-14.8l5.8-82.34.15-2.12c0-.12,0-.26,0-.39a20.31,20.31,0,0,0-20.32-20.31H147.55c-.77,41.72,20.13,55,38.59,66.76"/><path class="cls-3" d="M80.28,11.65A20.3,20.3,0,0,0,60,31.35l.29,4.12L66,116.81a99.54,99.54,0,0,0,2.09,14.8h71.57v-120Z"/><path class="cls-4" d="M216.89,139.26H147.34v65.87c13-4.27,55.71-21.38,69.55-65.87"/><path class="cls-1" d="M139.68,139.26H70.12a86.5,86.5,0,0,0,5.3,13.18h64.26Z"/><path class="cls-1" d="M95.07,178.81h44.61V165.64H83.44a98.79,98.79,0,0,0,11.63,13.17"/><path class="cls-1" d="M139.68,205.13V192H112a126.29,126.29,0,0,0,27.66,13.18"/><path class="cls-3" d="M147.55,225.75s-1.45-10.36,8.66-12.72,5.35-7.24,6-8c0,0,10,10.79-8.55,18.23l-5.81,2.46Z"/><path class="cls-3" d="M166.74,216.5s-2.77-9,5.86-12.55,3.7-7.19,4.16-8c0,0,10.46,8.15-5,17.43Z"/><path class="cls-3" d="M182.57,206.91s-3.44-8.19,4.34-12.34,2.83-7.1,3.19-7.88c0,0,10.57,6.7-3.06,16.88Z"/><path class="cls-3" d="M197.11,194.66s-4-7.08,2.64-11.68,1.82-6.76,2.06-7.47c0,0,10.31,5-1,15.62Z"/><path class="cls-3" d="M208.77,181.6s-4.61-6.09,1-11.2.82-6.54,1-7.24c0,0,10.22,3.33,1,14.69Z"/><path class="cls-3" d="M218.56,166.84s-5-4.74-.81-10.17-.25-5.94-.24-6.59c0,0,9.64,1.41,3.17,12.95Z"/><path class="cls-3" d="M171.53,215.11s7,6.27,13.84-.09,8.09-.36,9-.45c0,0-3-12.91-17.93-2.76Z"/><path class="cls-3" d="M187.88,204.76s7.32,5,13-1.76,7.52-1.32,8.34-1.51c0,0-4.41-11.72-17.13-.43Z"/><path class="cls-3" d="M201.43,192.18s7.24,3.69,11.55-3.15,6.67-2.09,7.38-2.36c0,0-5.39-10.1-15.58,1.65Z"/><path class="cls-3" d="M212.34,179s7.29,2.28,10.21-4.71,5.86-3,6.48-3.36c0,0-6.59-8.51-14.18,4Z"/><path class="cls-3" d="M221.89,162.89s6.83,1,8.47-5.65,4.82-3.51,5.33-3.93c0,0-7.08-6.67-12.14,5.57Z"/><path class="cls-3" d="M224.47,154s-3.3-4-.75-9.8c2.29-5.2,3-5.72,1.76-9.81-.37-1.26,7.8,14.39-1,19.61"/><path class="cls-3" d="M139.44,225.75s1.45-10.36-8.67-12.72-5.33-7.24-6-8c0,0-10,10.79,8.55,18.23l5.83,2.46Z"/><path class="cls-3" d="M120.24,216.5s2.77-9-5.87-12.55-3.7-7.19-4.16-8c0,0-10.45,8.15,5,17.43Z"/><path class="cls-3" d="M104.41,206.91s3.44-8.19-4.35-12.34-2.83-7.1-3.18-7.88c0,0-10.58,6.7,3.07,16.88Z"/><path class="cls-3" d="M89.87,194.66s4-7.08-2.65-11.68-1.82-6.76-2-7.47c0,0-10.33,5,1,15.62Z"/><path class="cls-3" d="M78.23,181.6s4.59-6.09-1-11.2-.83-6.54-1-7.24c0,0-10.25,3.33-1.05,14.69Z"/><path class="cls-3" d="M68.42,166.84s5-4.74.82-10.17.25-5.94.23-6.59c0,0-9.64,1.41-3.17,12.95Z"/><path class="cls-3" d="M115.45,215.11s-7,6.27-13.85-.09-8.08-.36-9-.45c0,0,3-12.91,17.94-2.76Z"/><path class="cls-3" d="M99.1,204.76s-7.33,5-13-1.76-7.52-1.32-8.35-1.51c0,0,4.42-11.72,17.14-.43Z"/><path class="cls-3" d="M85.56,192.18S78.3,195.87,74,189s-6.69-2.09-7.41-2.36c0,0,5.42-10.1,15.6,1.65Z"/><path class="cls-3" d="M74.65,179s-7.3,2.28-10.23-4.71-5.85-3-6.47-3.36c0,0,6.59-8.51,14.18,4Z"/><path class="cls-3" d="M65.1,162.89s-6.85,1-8.48-5.65-4.82-3.51-5.32-3.93c0,0,7.08-6.67,12.13,5.57Z"/><path class="cls-3" d="M62.53,154s3.29-4,.72-9.8c-2.29-5.2-3-5.72-1.75-9.81.37-1.26-7.8,14.39,1,19.61"/><path class="cls-3" d="M263.58,207.32H262c-.67,0-1.12-.15-1.32-.48a4,4,0,0,1-.35-2.06v-11H263a5.89,5.89,0,0,1,4.7,1.93,7.5,7.5,0,0,1,1.68,5.12,7.06,7.06,0,0,1-1.52,4.79,5.42,5.42,0,0,1-4.25,1.72m-.21-14.67H256v1h.29a1.33,1.33,0,0,1,1.13.39,3.24,3.24,0,0,1,.35,1.77v9.51a3.06,3.06,0,0,1-.35,1.73,1.3,1.3,0,0,1-1.13.43H256v1h7.56a9.24,9.24,0,0,0,6.38-2.06,7.06,7.06,0,0,0,2.32-5.58,7.64,7.64,0,0,0-2.44-5.85A9,9,0,0,0,263.37,192.65Z"/><path class="cls-3" d="M281.05,201.68h-4.57a2.81,2.81,0,0,1,.66-1.66,2,2,0,0,1,1.66-.68,2.11,2.11,0,0,1,1.6.63,2.49,2.49,0,0,1,.65,1.71m-4.61,1h6.95v-.51a3.6,3.6,0,0,0-1.34-2.82,4.32,4.32,0,0,0-3-1.18,4.77,4.77,0,0,0-3.61,1.57,5.3,5.3,0,0,0-1.43,3.8,5,5,0,0,0,1.54,3.73,5.36,5.36,0,0,0,8-.78v-1.47l-.45.54C281.84,207.31,276,208.69,276.44,202.72Z"/><path class="cls-3" d="M312.58,207.23a1.14,1.14,0,0,1-.23-.82v-4.73a3.34,3.34,0,0,0-1-2.55,3.46,3.46,0,0,0-2.46-.92,4.38,4.38,0,0,0-3.43,1.85,3,3,0,0,0-1.06-1.24,3.68,3.68,0,0,0-4,0,4.82,4.82,0,0,0-1.15.94v-1.5h-.74l-3.51.31v1h.89a1,1,0,0,1,.77.24,1.2,1.2,0,0,1,.25.86v5.58a1.86,1.86,0,0,1-.21,1c-.08.08-.31.22-1.12.22h-.27v1h5.56v-1h-.28a1.64,1.64,0,0,1-1.08-.24,1,1,0,0,1-.26-.81v-5a4.47,4.47,0,0,1,1.1-1.19,2.07,2.07,0,0,1,2.61.06,1.65,1.65,0,0,1,.5,1.29v4.36a2.32,2.32,0,0,1-.22,1.31c0,.08-.24.22-1.1.22h-.27v1h5.5v-1h-.27c-.73,0-1-.14-1.06-.22s-.23-.41-.23-.84v-5a2.94,2.94,0,0,1,2.39-1.6,2,2,0,0,1,1.32.41,1.6,1.6,0,0,1,.46,1.25v4.46a2.26,2.26,0,0,1-.23,1.31s-.25.22-1.1.22h-.3v1h5.59v-1h-.28a1.8,1.8,0,0,1-1.08-.2"/><path class="cls-3" d="M328.85,200.25a2.11,2.11,0,0,1,1.82-.91,2.44,2.44,0,0,1,1.35.37,4.07,4.07,0,0,1,1.14,1v5.6a1.22,1.22,0,0,1-.26.88,1.35,1.35,0,0,1-.95.27,3.38,3.38,0,0,1-2.83-1.24,5.08,5.08,0,0,1-1-3.36,4.19,4.19,0,0,1,.77-2.63m6.93,7a1.16,1.16,0,0,1-.25-.87V191.17h-.77l-3.38.34v1h.81a1,1,0,0,1,.78.23,2.36,2.36,0,0,1,.18,1.12v5.3a5.76,5.76,0,0,0-2.91-.92,4.4,4.4,0,0,0-3.33,1.5,5.22,5.22,0,0,0,.19,7.27,5.92,5.92,0,0,0,4.21,1.46h5.79v-1h-.28C336.19,207.47,335.88,207.35,335.78,207.23Z"/><path class="cls-3" d="M351.83,206.37a2.06,2.06,0,0,1-1.57.83,1.36,1.36,0,0,1-1.06-.43,2,2,0,0,1-.38-1.27v-5.82h3.28v-1.22h-3.28v-3.18h-.9l-.07.14a6.67,6.67,0,0,1-3,3.28l-.14.07v.91h1.82v6.07a3,3,0,0,0,.81,2.15,2.9,2.9,0,0,0,2.17.84,3.84,3.84,0,0,0,3.07-1.66l.14-.19-.66-.76Z"/><path class="cls-3" d="M356.35,200.36a2.5,2.5,0,0,1,2.14-1.06,2.42,2.42,0,0,1,2.11,1.09,5.28,5.28,0,0,1,.79,3.11,5.22,5.22,0,0,1-.79,3.08,2.59,2.59,0,0,1-4.25,0,5.22,5.22,0,0,1-.82-3.08,5.51,5.51,0,0,1,.82-3.14m2.14-2.15a5.5,5.5,0,0,0-3.91,1.5A5.12,5.12,0,0,0,353,203.5a4.93,4.93,0,0,0,1.58,3.73,5.39,5.39,0,0,0,3.9,1.51,5.49,5.49,0,0,0,3.89-1.51,4.94,4.94,0,0,0,1.54-3.73,5.09,5.09,0,0,0-1.54-3.79A5.46,5.46,0,0,0,358.49,198.21Z"/><path class="cls-3" d="M291.93,201.68h-4.56A2.75,2.75,0,0,1,288,200a2,2,0,0,1,1.66-.68,2.1,2.1,0,0,1,1.59.63,2.45,2.45,0,0,1,.65,1.71m-4.58,1h6.92v-.51a3.63,3.63,0,0,0-1.31-2.82,4.44,4.44,0,0,0-3-1.18,4.7,4.7,0,0,0-3.57,1.57,5.36,5.36,0,0,0-1.45,3.8,5.13,5.13,0,0,0,1.51,3.73,5.43,5.43,0,0,0,3.85,1.43,5.21,5.21,0,0,0,4.16-2.21v-1.47l-.46.54C292.73,207.31,286.87,208.69,287.35,202.72Z"/><path class="cls-3" d="M321.9,201.68h-4.57A2.81,2.81,0,0,1,318,200a2,2,0,0,1,1.65-.68,2.16,2.16,0,0,1,1.6.63,2.41,2.41,0,0,1,.66,1.71m-4.6,1h6.94v-.51a3.65,3.65,0,0,0-1.33-2.82,4.4,4.4,0,0,0-3-1.18,4.76,4.76,0,0,0-3.58,1.57,5.45,5.45,0,0,0-1.45,3.8,5,5,0,0,0,1.53,3.73,5.35,5.35,0,0,0,3.85,1.43,5.29,5.29,0,0,0,4.18-2.21v-1.47l-.49.54C322.68,207.31,316.84,208.69,317.3,202.72Z"/><path class="cls-3" d="M379.31,203.3a4.53,4.53,0,0,1-1,3.12,3.37,3.37,0,0,1-2.71,1.11,1.42,1.42,0,0,1-1-.3,2.2,2.2,0,0,1-.26-1.28v-5.28a2.8,2.8,0,0,1,2.15-1.14,2.48,2.48,0,0,1,2,1,4.29,4.29,0,0,1,.88,2.75m-2.14-5.09a4.68,4.68,0,0,0-1.85.4,4.14,4.14,0,0,0-1,.65v-8.09h-.78l-3.3.34v1h.29c.95,0,1.16.16,1.22.2s.19.23.19,1.15v14.4l.24,0a20.44,20.44,0,0,0,2.95.29A7.37,7.37,0,0,0,380,207a5,5,0,0,0,1.81-4,4.84,4.84,0,0,0-1.36-3.45A4.42,4.42,0,0,0,377.17,198.21Z"/><path class="cls-3" d="M390.25,201.68h-4.57a2.81,2.81,0,0,1,.67-1.66,2,2,0,0,1,1.65-.68,2.12,2.12,0,0,1,1.59.63,2.5,2.5,0,0,1,.66,1.71m-4.58,1h6.92v-.51a3.59,3.59,0,0,0-1.33-2.82,4.39,4.39,0,0,0-3.05-1.18,4.81,4.81,0,0,0-3.58,1.57,5.39,5.39,0,0,0-1.43,3.8,5,5,0,0,0,1.55,3.73,5.33,5.33,0,0,0,3.84,1.43,5.18,5.18,0,0,0,4.15-2.21v-1.47l-.48.54C391,207.31,385.2,208.69,385.67,202.72Z"/><path class="cls-3" d="M446.17,190.27h.27a2.33,2.33,0,0,1,1.93.72,4.62,4.62,0,0,1,.54,2.71v12.35l-13.65-16.86-.06-.09H429v1.16h.24a3.31,3.31,0,0,1,2.36,1,4.19,4.19,0,0,1,.72,2.86v13.15a5.68,5.68,0,0,1-.5,2.83,2.32,2.32,0,0,1-2,.73h-.26v1.21h7.35v-1.21h-.27a3,3,0,0,1-2.08-.62,3.17,3.17,0,0,1-.6-2.2v-15L449.45,212l0,.1h1.09V193.56a4.42,4.42,0,0,1,.56-2.61,2.64,2.64,0,0,1,2.07-.68h.27V189.1h-7.31Z"/><path class="cls-3" d="M461,190.27h.29a2,2,0,0,1,1.8.67,5,5,0,0,1,.47,2.67v14a5,5,0,0,1-.47,2.64,2.09,2.09,0,0,1-1.8.65H461v1.21h8.64v-1.21h-.27a2.08,2.08,0,0,1-1.79-.66,5.05,5.05,0,0,1-.48-2.63v-14a4.87,4.87,0,0,1,.5-2.66,2,2,0,0,1,1.77-.68h.27V189.1H461Z"/><path class="cls-3" d="M489.9,190.32l.3,0c1.57-.18,2.65.09,3.14.79a2.26,2.26,0,0,1,.19,1.83l-5,12.58-4.93-12.92a2.7,2.7,0,0,1-.22-1c0-.52.17-1.24,1.69-1.24h.27V189.1h-8.71v1.16h.25a2.83,2.83,0,0,1,1.87.65,9.15,9.15,0,0,1,1.61,3.07l7.31,18.82L494.86,194a10.32,10.32,0,0,1,1.59-3.07,3,3,0,0,1,1.88-.65h.25V189.1H489.9Z"/><path class="cls-3" d="M520.84,207.51a6.67,6.67,0,0,1-1.13,1.93,2.39,2.39,0,0,1-1.23.79,11.28,11.28,0,0,1-2.86.22h-3.94a1.72,1.72,0,0,1-1.08-.26,1.45,1.45,0,0,1-.26-1v-7.78h5.28a4,4,0,0,1,2.13.34c.15.1.47.46.75,1.62l.08.2h1.14v-6h-1.16l0,.24a3.06,3.06,0,0,1-.58,1.59,2.45,2.45,0,0,1-1.58.4h-6v-9.09h6.2c1.78,0,2.39.3,2.59.48a3.67,3.67,0,0,1,.92,2l0,.22H521V189.1H504.27v1.17h.26a2,2,0,0,1,1.8.67,5.1,5.1,0,0,1,.46,2.67v14a5.19,5.19,0,0,1-.45,2.61,2.07,2.07,0,0,1-1.81.65h-.26v1.21H521l1.16-4.76h-1.2Z"/><path class="cls-3" d="M582.23,190.27h.27a2.06,2.06,0,0,1,1.8.67,5,5,0,0,1,.48,2.67v14a4.81,4.81,0,0,1-.48,2.64,2.11,2.11,0,0,1-1.8.65h-.27v1.21h8.61v-1.21h-.26a2,2,0,0,1-1.77-.66,4.68,4.68,0,0,1-.51-2.63v-14a5,5,0,0,1,.51-2.66,2.1,2.1,0,0,1,1.77-.68h.26V189.1h-8.61Z"/><path class="cls-3" d="M618,188.35a5.57,5.57,0,0,1-3.4.77H602.85a4.82,4.82,0,0,1-3.2-.77l0-.07h-1.07V194h1.16l0-.25a2.86,2.86,0,0,1,1.09-2.25,5.83,5.83,0,0,1,3.26-.69h3v16.86a5.3,5.3,0,0,1-.47,2.6,2.09,2.09,0,0,1-1.8.69h-.27v1.18H613v-1.18h-.28a2,2,0,0,1-1.72-.6,5.19,5.19,0,0,1-.45-2.6v-17h3.15a5.73,5.73,0,0,1,3.08.62,3.49,3.49,0,0,1,1.4,2.36l0,.21h.93v-5.67h-1.09Z"/><path class="cls-3" d="M637.83,189.1v1.17h.28c1.1,0,1.22.56,1.22,1a4.38,4.38,0,0,1-.74,2.05l-3.32,5.26L631,192.1a2.1,2.1,0,0,1-.42-1c0-.69,1.3-.79,2-.79H633V189.1h-9.34v1.16h.24a4,4,0,0,1,1.91.58,10,10,0,0,1,1.87,2.36l4.76,7.39v7a5,5,0,0,1-.5,2.61,2.27,2.27,0,0,1-2,.68h-.3v1.21h8.77v-1.21h-.29a2.08,2.08,0,0,1-1.73-.62,5.18,5.18,0,0,1-.49-2.67v-7l5-7.91a6.47,6.47,0,0,1,1.59-1.89,3.48,3.48,0,0,1,1.79-.53h.25V189.1Z"/><path class="cls-3" d="M567.07,198.4a15.4,15.4,0,0,1-3.92-3,3.7,3.7,0,0,1-.85-2.38,2.71,2.71,0,0,1,1-2.25,4.23,4.23,0,0,1,2.75-.86,4.6,4.6,0,0,1,3.22,1.16,4.88,4.88,0,0,1,1.51,3.23l0,.25H572v-5.8h-1.09l0,.17c-.07.24-.13.4-.13.4s-.05.07-.2.07a4.69,4.69,0,0,1-1.06-.27,10.06,10.06,0,0,0-3.34-.6,6.4,6.4,0,0,0-4.61,1.66,5.82,5.82,0,0,0-1.78,4.4,7,7,0,0,0,.43,2.55,6.54,6.54,0,0,0,1.35,2.14,19.41,19.41,0,0,0,3.59,2.62,17.84,17.84,0,0,1,4.17,3.15,4,4,0,0,1,.93,2.43,3.37,3.37,0,0,1-1.13,2.71,4.67,4.67,0,0,1-3.12,1,5.28,5.28,0,0,1-3.61-1.44,5.08,5.08,0,0,1-1.55-3.86v-.24h-1.18v6.6h1.11l0-.2c.2-.42.37-.65.62-.65a5.25,5.25,0,0,1,1.16.33,12.59,12.59,0,0,0,4,.85,6.44,6.44,0,0,0,4.71-1.95,6.37,6.37,0,0,0,2-4.74,5.9,5.9,0,0,0-1.29-3.77,17.83,17.83,0,0,0-4.85-3.77"/><path class="cls-3" d="M415,190.27h.28a2.25,2.25,0,0,1,1.94.73,4.75,4.75,0,0,1,.53,2.7v10c-.22,3.28-1.89,6.79-5.92,6.87a5.33,5.33,0,0,1-4-1.5,5.83,5.83,0,0,1-1.44-4.13V193.56a4.89,4.89,0,0,1,.49-2.62,2.1,2.1,0,0,1,1.84-.67H409V189.1H400.3v1.17h.28a1.94,1.94,0,0,1,1.77.68,5.09,5.09,0,0,1,.51,2.66v11a8.16,8.16,0,0,0,2.1,5.81,7.74,7.74,0,0,0,5.82,2.19h0c9.06-.59,8.81-8.15,8.7-11.8v-7.27a4.25,4.25,0,0,1,.58-2.61,2.49,2.49,0,0,1,2-.68h.28V189.1H415Z"/><path class="cls-3" d="M559.6,215.1a6.74,6.74,0,0,1-2.71.56,7,7,0,0,1-4.11-1.35c-2.17-1.59-3.77-4.33-5.33-7-.4-.72-.83-1.45-1.26-2.16a20.89,20.89,0,0,0-3-4c3.33-1.16,5.2-3.23,5.2-5.72a5.6,5.6,0,0,0-2.21-4.59,9,9,0,0,0-5.77-1.77H530.08v1.16h.28a2,2,0,0,1,1.77.68,4.71,4.71,0,0,1,.48,2.65v14a4.71,4.71,0,0,1-.48,2.64c0,.11-.16.16-.26.25h0a1.93,1.93,0,0,1-1.72.63h-.07v1h8.61v-1h-.35a1.9,1.9,0,0,1-1.68-.64,4.41,4.41,0,0,1-.49-2.29.57.57,0,0,0,0-.14v-.21c0-.1,0-.17,0-.25v-14c0-.05,0-.09,0-.16v-2.65h2c1.67,0,3.87.45,4.83,1.32a4.33,4.33,0,0,1,1.44,3.44,4.71,4.71,0,0,1-1.31,3.48c-.85.89-2.92,1.57-4.39,2l-1,.28s3,.81,6.44,6.73a19.83,19.83,0,0,0,4.79,6.33,10.24,10.24,0,0,0,1.75,1.21,9,9,0,0,0,4.18,1,9.09,9.09,0,0,0,4.27-1.06l.05,0a8.63,8.63,0,0,0,1.11-.75,5,5,0,0,1-.7.34"/><path class="cls-1" d="M648.9,53.78h1.31a2.05,2.05,0,0,0,1.28-.29.94.94,0,0,0,.18-1.27,1,1,0,0,0-.46-.35,3.21,3.21,0,0,0-1.08-.12H648.9Zm-1.08,3.77v-6.7h2.3a5.79,5.79,0,0,1,1.71.18,1.64,1.64,0,0,1,.84.65,1.7,1.7,0,0,1,.31,1,1.77,1.77,0,0,1-.52,1.28,2.06,2.06,0,0,1-1.39.61,1.86,1.86,0,0,1,.57.36,7.17,7.17,0,0,1,1,1.33l.82,1.31h-1.33l-.59-1.06a5.4,5.4,0,0,0-1.13-1.56,1.43,1.43,0,0,0-.87-.23h-.63v2.85Zm2.73-8.65a5.31,5.31,0,0,0-2.56.68,4.91,4.91,0,0,0-1.94,1.92,5.17,5.17,0,0,0,0,5.18A4.84,4.84,0,0,0,648,58.61a5.17,5.17,0,0,0,5.16,0,4.76,4.76,0,0,0,1.92-1.93,5.17,5.17,0,0,0,0-5.18,4.78,4.78,0,0,0-1.94-1.92A5.3,5.3,0,0,0,650.55,48.9Zm0-1a6.37,6.37,0,0,1,3.06.81,5.67,5.67,0,0,1,2.33,2.3,6.4,6.4,0,0,1,.83,3.13A6.27,6.27,0,0,1,656,57.2a5.87,5.87,0,0,1-2.3,2.31,6.27,6.27,0,0,1-6.2,0,5.83,5.83,0,0,1-2.31-2.31,6.27,6.27,0,0,1-.82-3.09,6.4,6.4,0,0,1,.83-3.13,5.7,5.7,0,0,1,2.34-2.3A6.31,6.31,0,0,1,650.55,47.87Z"/></svg>